# xmcd
#
# Track frame offsets:
#	150
#	4241
#	21051
#	34314
#	55213
#	57249
#	78185
#	82272
#	113609
#	130408
#	135357
#	153362
#	158021
#	169661
#	187922
#	204972
#	208039
#
# Disc length: 3135 seconds
#
# Revision: 0
# Processed by: cddbd v1.5.2PL0 Copyright (c) Steve Scherf et al.
# Submitted via: EasyCDDAExtractor 12.1.0.1
#
DISCID=d50c3d11
DTITLE=Various Artist - GERALDINHO TROVA PROSA VIOLA-VOL-02-2003/02/06/2010
DYEAR=2003
DGENRE=CAUSOS
TTITLE0=HAMILTON CARNEIRO - PRIMEIRA CRIA (BY DJ GILMAR SINISTRO)
TTITLE1=ANDRÉ and ANDRADE - SUSPIRO (BY DJ GILMAR SINISTRO)
TTITLE2=GERALDINHO - CAUSO DO PORQUINHO (CICATRIZ NO NARIZ) (BY DJ GILMAR SINI
TTITLE2=STRO)
TTITLE3=ANDRÉ and ANDRADE - O RÁDIO (BY DJ GILMAR SINISTRO)
TTITLE4=HAMILTON CARNEIRO - MÃE (BY DJ GILMAR SINISTRO)
TTITLE5=GERALDINHO - O CAUSO DO RÁDIO (BY DJ GILMAR SINISTRO)
TTITLE6=GERALDINHO and HAMILTON CARNEIRO - MODA DO CARRO DE BOI (BY DJ GILMAR SI
TTITLE6=NISTRO)
TTITLE7=GERALDINHO - CAUSO DO CARRO DE BOI (CARREIRO)Q (BY DJ GILMAR SINISTRO)
TTITLE8=ANDRÉ and ANDRADE - ROSA E JOAQUIM (BY DJ GILMAR SINISTRO)
TTITLE9=HAMILTON CARNEIRO - OS NAMORADOS (BY DJ GILMAR SINISTRO)
TTITLE10=GERALDINHO - CASALZINHO NOVO (BY DJ GILMAR SINISTRO)
TTITLE11=HAMILTON CARNEIRO - SOLDADO (BY DJ GILMAR SINISTRO)
TTITLE12=ANDRÉ and ANDRADE - O SOLDADO ESTORVADO (BY DJ GILMAR SINISTRO)
TTITLE13=GERALDINHO - O CAUSO DO SOLDADO (BY DJ GILMAR SINISTRO)
TTITLE14=ANDRÉ and ANDRADE - PEÃOZINHO (BY DJ GILMAR SINISTRO)
TTITLE15=HAMILTON CARNEIRO - PEÃO CAGÃO (BY DJ GILMAR SINISTRO)
TTITLE16=GERALDINHO - O CAUSO DO PEÃOZINHO NOVO (BY DJ GILMAR SINISTRO)
EXTD=
EXTT0=
EXTT1=
EXTT2=
EXTT3=
EXTT4=
EXTT5=
EXTT6=
EXTT7=
EXTT8=
EXTT9=
EXTT10=
EXTT11=
EXTT12=
EXTT13=
EXTT14=
EXTT15=
EXTT16=
PLAYORDER=
